HIERARCHY
ROOT hip
{
  OFFSET 0 0 0
  CHANNELS 6 Xposition Yposition Zposition Zrotation Yrotation Xrotation
  JOINT abdomen
  {
    OFFSET 0 20.6881 -0.73152
    CHANNELS 3 Zrotation Xrotation Yrotation
    JOINT chest
    {
      OFFSET 0 11.7043 -0.48768
      CHANNELS 3 Zrotation Xrotation Yrotation
      JOINT neck
      {
        OFFSET 0 22.1894 -2.19456
        CHANNELS 3 Zrotation Xrotation Yrotation
        JOINT head
        {
          OFFSET -0.24384 7.07133 1.2192
          CHANNELS 3 Zrotation Xrotation Yrotation
          JOINT leftEye
          {
            OFFSET 4.14528 8.04674 8.04672
            CHANNELS 3 Zrotation Xrotation Yrotation
            End Site
            {
              OFFSET 1 0 0
            }
          }
          JOINT rightEye
          {
            OFFSET -3.6576 8.04674 8.04672
            CHANNELS 3 Zrotation Xrotation Yrotation
            End Site
            {
              OFFSET 1 0 0
            }
          }
        }
      }
      JOINT rCollar
      {
        OFFSET -2.68224 19.2634 -4.8768
        CHANNELS 3 Zrotation Xrotation Yrotation
        JOINT rShldr
        {
          OFFSET -8.77824 -1.95073 1.46304
          CHANNELS 3 Zrotation Xrotation Yrotation
          JOINT rForeArm
          {
            OFFSET -28.1742 -1.7115 0.48768
            CHANNELS 3 Zrotation Xrotation Yrotation
            JOINT rHand
            {
              OFFSET -22.5879 0.773209 7.07136
              CHANNELS 3 Zrotation Xrotation Yrotation
              JOINT rThumb1
              {
                OFFSET -1.2192 -0.487915 3.41376
                CHANNELS 3 Zrotation Xrotation Yrotation
                JOINT rThumb2
                {
                  OFFSET -3.37035 -0.52449 3.41376
                  CHANNELS 3 Zrotation Xrotation Yrotation
                  End Site
                  {
                    OFFSET -1.78271 -1.18214 1.43049
                  }
                }
              }
              JOINT rIndex1
              {
                OFFSET -7.75947 0.938293 5.60832
                CHANNELS 3 Zrotation Xrotation Yrotation
                JOINT rIndex2
                {
                  OFFSET -2.54057 -0.884171 1.56538
                  CHANNELS 3 Zrotation Xrotation Yrotation
                  End Site
                  {
                    OFFSET -1.62519 -0.234802 1.16502
                  }
                }
              }
              JOINT rMid1
              {
                OFFSET -8.24714 1.18213 3.41376
                CHANNELS 3 Zrotation Xrotation Yrotation
                JOINT rMid2
                {
                  OFFSET -3.10165 -0.590103 1.0647
                  CHANNELS 3 Zrotation Xrotation Yrotation
                  End Site
                  {
                    OFFSET -2.48547 -0.328903 0.83742
                  }
                }
              }
              JOINT rRing1
              {
                OFFSET -8.82822 0.546677 1.51678
                CHANNELS 3 Zrotation Xrotation Yrotation
                JOINT rRing2
                {
                  OFFSET -2.60934 -0.819778 -0.0198488
                  CHANNELS 3 Zrotation Xrotation Yrotation
                  End Site
                  {
                    OFFSET -2.33842 -0.294052 0.168128
                  }
                }
              }
              JOINT rPinky1
              {
                OFFSET -8.27202 -0.0477905 -0.4584
                CHANNELS 3 Zrotation Xrotation Yrotation
                JOINT rPinky2
                {
                  OFFSET -1.82734 -0.647385 -0.700984
                  CHANNELS 3 Zrotation Xrotation Yrotation
                  End Site
                  {
                    OFFSET -1.69225 -0.51767 -0.607171
                  }
                }
              }
            }
          }
        }
      }
      JOINT lCollar
      {
        OFFSET 2.68224 19.2634 -4.8768
        CHANNELS 3 Zrotation Xrotation Yrotation
        JOINT lShldr
        {
          OFFSET 8.77824 -1.95073 1.46304
          CHANNELS 3 Zrotation Xrotation Yrotation
          JOINT lForeArm
          {
            OFFSET 28.1742 -1.7115 0.48768
            CHANNELS 3 Zrotation Xrotation Yrotation
            JOINT lHand
            {
              OFFSET 22.5879 0.773209 7.07136
              CHANNELS 3 Zrotation Xrotation Yrotation
              JOINT lThumb1
              {
                OFFSET 1.2192 -0.487915 3.41376
                CHANNELS 3 Zrotation Xrotation Yrotation
                JOINT lThumb2
                {
                  OFFSET 3.37035 -0.52449 3.41376
                  CHANNELS 3 Zrotation Xrotation Yrotation
                  End Site
                  {
                    OFFSET 1.78271 -1.18214 1.43049
                  }
                }
              }
              JOINT lIndex1
              {
                OFFSET 7.75947 0.938293 5.60832
                CHANNELS 3 Zrotation Xrotation Yrotation
                JOINT lIndex2
                {
                  OFFSET 2.54057 -0.884171 1.56538
                  CHANNELS 3 Zrotation Xrotation Yrotation
                  End Site
                  {
                    OFFSET 1.62519 -0.234802 1.16502
                  }
                }
              }
              JOINT lMid1
              {
                OFFSET 8.24714 1.18213 3.41376
                CHANNELS 3 Zrotation Xrotation Yrotation
                JOINT lMid2
                {
                  OFFSET 3.10165 -0.590103 1.0647
                  CHANNELS 3 Zrotation Xrotation Yrotation
                  End Site
                  {
                    OFFSET 2.48547 -0.328903 0.83742
                  }
                }
              }
              JOINT lRing1
              {
                OFFSET 8.82822 0.546677 1.51678
                CHANNELS 3 Zrotation Xrotation Yrotation
                JOINT lRing2
                {
                  OFFSET 2.60934 -0.819778 -0.0198488
                  CHANNELS 3 Zrotation Xrotation Yrotation
                  End Site
                  {
                    OFFSET 2.33842 -0.294052 0.168128
                  }
                }
              }
              JOINT lPinky1
              {
                OFFSET 8.27202 -0.0477905 -0.4584
                CHANNELS 3 Zrotation Xrotation Yrotation
                JOINT lPinky2
                {
                  OFFSET 1.82734 -0.647385 -0.700984
                  CHANNELS 3 Zrotation Xrotation Yrotation
                  End Site
                  {
                    OFFSET 1.69225 -0.51767 -0.607171
                  }
                }
              }
            }
          }
        }
      }
    }
  }
  JOINT rButtock
  {
    OFFSET -8.77824 4.35084 1.2192
    CHANNELS 3 Zrotation Xrotation Yrotation
    JOINT rThigh
    {
      OFFSET 0 -1.70687 -2.19456
      CHANNELS 3 Zrotation Xrotation Yrotation
      JOINT rShin
      {
        OFFSET 0 -36.8199 0.73152
        CHANNELS 3 Zrotation Xrotation Yrotation
        JOINT rFoot
        {
          OFFSET 0.73152 -45.1104 -5.12064
          CHANNELS 3 Zrotation Xrotation Yrotation
          End Site
          {
            OFFSET -1.1221 -3.69964 12.103
          }
        }
      }
    }
  }
  JOINT lButtock
  {
    OFFSET 8.77824 4.35084 1.2192
    CHANNELS 3 Zrotation Xrotation Yrotation
    JOINT lThigh
    {
      OFFSET 0 -1.70687 -2.19456
      CHANNELS 3 Zrotation Xrotation Yrotation
      JOINT lShin
      {
        OFFSET 0 -36.8199 0.73152
        CHANNELS 3 Zrotation Xrotation Yrotation
        JOINT lFoot
        {
          OFFSET -0.73152 -45.1104 -5.12064
          CHANNELS 3 Zrotation Xrotation Yrotation
          End Site
          {
            OFFSET 1.1221 -3.69964 12.103
          }
        }
      }
    }
  }
}
MOTION
Frames:	5
Frame Time:	0.03333
-8.9254 49.857600000000005 1.5364 15.778404 -49.037637 -9.073194 -17.915998 6.425546 -109.093589 2.339213 4.506383 113.841527 5.007881 21.345097 69.274179 -32.893898 -1.770965 -109.080608 0.004306 0.0 0.004837 -0.001082 -0.0 0.004889 -153.659365 7.056798 159.421729 -24.047118 3.552796 -15.181345 8.575922 -8.607918 -65.609885 156.996576 -33.768554 140.394713 -78.03056 38.689928 42.412553 13.873627 -20.918328 21.36041 12.562623 -22.428132 -5.204611 -85.155328 47.783405 68.802525 -160.937423 -7.487965 143.368633 -88.647986 63.698239 80.362802 -145.123384 1.975236 -179.749226 10.066489 -0.022552 -8.993914 19.44781 67.282752 13.090131 -141.927882 -6.248143 -137.758812 -1.671555 -11.458694 2.379057 110.355077 1.004899 143.104503 111.164708 12.772982 66.752389 -69.226444 -82.858024 -51.705378 171.603414 -9.286153 -89.950533 20.425664 -39.959063 -3.520795 4.706634 7.224039 -2.854727 158.949759 -8.721022 -110.051058 160.674202 -6.66761 -143.245405 167.440648 -17.358886 -143.828588 69.299272 72.945656 -87.017707 -5.015651 28.724745 0.505095 -17.317292 60.660259 -12.79551 -48.503809 83.310238 12.038073 -0.0 3.3e-05 4.9e-05 -77.787961 -57.261488 -173.421452 -85.863954 -22.413768 14.708926 13.906522 -50.772745 108.21376 -0.000181 0.001732 0.000233 14.143274 15.794224 95.463617 43.227423 -2.115665 81.367407 69.191425 58.846234 178.358432
-8.9475 49.8375 1.5699999999999998 15.736592 -49.01283 -9.025154 -22.112123 8.580782 55.1783 -0.319333 -9.667841 -49.901123 -14.929509 23.429681 -59.606197 34.553045 -7.117473 24.686901 -0.001794 0.0 -0.002101 -0.000923 -0.0 0.003515 -155.61341 -4.236298 161.991516 -8.749919 28.877402 -22.444825 165.57981 53.517819 -133.995334 -15.8129 55.882923 7.677363 -178.927641 -16.453677 89.421363 -171.134553 -7.692706 94.00667 -117.901826 27.950576 99.678859 -164.285761 -12.014677 117.018275 0.047454 -0.138639 -0.02642 -4.717071 20.800815 4.255084 0.005478 0.917407 0.287328 -155.521191 -1.616424 172.041241 -55.228289 -50.539112 -53.898599 -146.131015 10.712262 -142.776119 -0.1182 -0.714133 0.157056 -76.695803 15.915323 29.955733 -174.584572 -5.977554 -42.241591 165.382372 15.322643 -138.470757 -171.559505 -25.004801 -87.391516 117.272265 21.754361 -56.827542 151.353417 -17.158701 -121.132268 14.904351 38.942123 -5.205276 158.522427 -0.192268 -142.144389 168.951968 -21.948814 -143.915319 145.113654 -0.6284 178.933135 -11.264317 13.7582 7.373093 -6.761607 20.647472 -6.027861 24.635473 -41.264822 24.951202 -0.0 0.000626 0.000481 -77.627753 -57.175485 -166.775437 -85.032681 -15.712849 22.223952 159.769565 -64.4819 -90.464267 179.994136 75.750003 0.006051 -80.53218 76.199013 -15.094569 29.350372 7.358696 -103.027872 -141.725546 -66.329092 -49.408027
-8.9687 49.8209 1.5948 15.669503 -49.015775 -8.958686 -17.654724 7.266094 -89.343439 4.537925 3.311463 94.024412 6.630986 28.172646 109.518125 -33.888203 22.56583 -142.824938 0.005046 -0.0 -0.003261 0.000257 0.0 0.003184 -142.973558 39.431472 147.389715 -14.30566 -77.279882 14.644284 -10.800502 -76.586173 18.492029 -6.395225 36.695713 3.232045 -160.051867 2.21327 88.878232 -170.660952 -11.653506 84.720443 -90.225933 41.072174 75.796445 83.290014 -65.190157 36.584388 -89.835755 60.701218 81.262373 -167.743711 -19.074953 144.075218 0.005271 1.770373 0.556678 -154.167194 14.734048 169.806527 -134.872904 -13.758019 -132.285271 -83.652811 -52.261631 -83.575718 0.049175 0.292405 -0.06479 38.273604 -56.809247 109.102813 -98.534289 -37.129083 61.537 123.425563 57.657603 -100.395113 7.75844 7.439129 -1.6821 155.564464 -62.456444 -112.696843 0.327908 0.529685 -0.186989 -152.728913 -54.556462 -88.671887 29.515067 47.60886 -23.794837 42.035913 58.514912 -36.245143 72.349427 72.975558 -90.217671 -5.19703 26.573101 0.927823 -1.298419 3.491566 -1.192804 77.812763 -54.753215 77.385594 -4.4e-05 -0.001378 5.7e-05 -78.550364 -54.895506 12.453036 79.748719 8.287837 -73.688041 -71.175527 -8.444289 16.952483 0.00018 0.000286 -0.000231 14.827239 14.887622 152.422809 28.907602 -31.433147 88.256052 70.065604 7.365971 158.658797
-8.9804 49.8054 1.6157000000000001 15.592638 -49.065 -8.873735 -17.739943 6.473936 -109.414893 2.321673 4.531058 114.1268 5.706717 30.894752 126.383224 -29.70098 31.72348 -158.179318 0.004099 0.0 0.001027 0.002978 -0.0 -0.003833 -155.417036 -2.951362 161.718816 -43.164489 -44.459365 -33.359208 -88.280429 -48.797119 -83.794666 11.538468 -18.050437 7.463576 -178.928517 -16.453321 89.421256 -86.812797 13.099823 31.06983 -46.208957 39.652195 36.3189 -178.994345 -31.82355 109.643743 -10.975311 25.790025 7.639821 -163.379728 -5.382431 143.39289 -145.119027 0.226177 -179.200382 11.934436 52.991798 -2.68208 -145.519622 13.175294 -142.132199 7.32729 13.871124 1.66953 82.877793 68.299762 -86.000547 -76.416744 -2.574566 -52.916777 -3.519643 -7.389405 -101.377101 9.790315 -10.682585 4.152988 85.829728 38.631207 -47.955176 -80.298575 -49.521722 -32.842102 14.228775 19.203511 -9.559264 153.567201 1.260019 -109.3197 0.058398 0.167752 -0.032078 176.513355 -42.386632 -142.884866 71.539654 -72.14073 88.496162 -13.72312 -25.671448 8.056907 124.851862 -29.038955 122.621903 -16.64575 41.518441 -6.325531 0.000511 0.000751 0.000766 -78.129864 -54.877363 -0.0 85.469306 15.351275 5.156173 -78.679606 67.533366 2.331332 0.000511 0.000751 0.000766 15.376707 17.029451 -0.0 -4.441091 29.278408 -23.268028 -91.892687 -77.549732 -8.051789
-8.9833 49.7896 1.6451 15.550049 -49.133212 -8.806222 -17.578839 7.3262 -89.541637 4.575632 3.340537 94.252709 6.147577 23.261403 81.779742 -34.741447 5.727944 -119.743517 0.001317 -0.0 -0.001639 0.001317 -0.0 -0.001639 -150.119519 21.701141 155.219793 -29.13917 1.578402 -6.383122 89.739267 39.320271 -107.626584 -175.636604 41.499102 149.449331 -168.110796 -5.789227 89.869847 64.302728 -66.628967 49.451247 2.325731 -3.867997 -1.258261 -165.98566 -20.588358 109.698893 -36.03663 51.722847 29.832706 3.680616 -0.806535 -0.035435 -70.378271 -72.131169 -87.279361 -149.92153 -26.607187 179.948466 19.445183 67.282601 13.096483 38.494917 80.314995 -3.131302 13.947668 42.750365 -15.784457 -79.475224 -1.932916 -11.782182 -166.833841 0.302554 -41.937748 161.752338 23.480063 -135.604544 -0.566756 -0.561918 0.084316 15.20335 15.074671 -12.83227 148.885631 -12.609954 -120.24472 -132.415792 -69.448889 -76.21732 -0.291313 -0.849623 0.158305 42.071278 58.55916 -36.098788 67.608496 -72.0749 84.373651 85.689862 82.853578 -103.590315 -27.127419 80.263909 -10.034385 148.958019 13.240727 143.105158 0.000213 9.3e-05 -0.000274 -77.67015 -57.205935 -166.764068 -85.901534 -15.668222 15.196654 119.409755 -76.334651 -136.963096 0.0 9.3e-05 -0.000439 16.528183 15.984319 -85.245508 -39.827026 -5.568273 -35.783786 0.765611 29.734209 149.488167
